<svg height="512pt" viewBox="0 -98 512 512" width="512pt" xmlns="http://www.w3.org/2000/svg"><path d="m0 270h61.898438c6.679687 25.847656 30.195312 45 58.101562 45s51.425781-19.152344 58.101562-45h155.796876c6.675781 25.847656 30.195312 45 58.101562 45s51.421875-19.152344 58.101562-45h61.898438v-106c0-24.8125-20.1875-45-45-45h-62.953125l-79-119h-199.28125l-60 119h-65.765625zm170.636719-240-44.871094 89h-26.402344l44.871094-89zm70.363281 0v89h-81.636719l44.871094-89zm127.039062 89h-97.039062v-89h37.953125zm113.960938 121h-30v-30h30zm-120 15c0-16.542969 13.457031-30 30-30s30 13.457031 30 30-13.457031 30-30 30-30-13.457031-30-30zm-272 0c0-16.542969 13.457031-30 30-30s30 13.457031 30 30-13.457031 30-30 30-30-13.457031-30-30zm-60-106h437c8.269531 0 15 6.730469 15 15v16h-60v23.070312c-8.832031-5.121093-19.074219-8.070312-30-8.070312-27.90625 0-51.425781 19.152344-58.101562 45h-155.796876c-6.679687-25.847656-30.195312-45-58.101562-45s-51.425781 19.152344-58.101562 45h-31.898438zm0 0"/><path d="m257 180h30v30h-30zm0 0"/></svg>