<svg height="511pt" viewBox="0 -3 511.99925 511" width="511pt" xmlns="http://www.w3.org/2000/svg"><path d="m347.355469 39.503906 61.296875 23.929688c2.34375.914062 5.398437 3.039062 7.085937 4.914062l91.878907 102.144532c5.84375 5.84375 5.84375 15.320312-.003907 21.164062l-60.878906 60.882812c-5.847656 5.84375-15.324219 5.84375-21.171875 0l-7.378906-7.378906v245.386719c0 8.265625-6.703125 14.96875-14.972656 14.96875h-294.425782c-8.265625 0-14.96875-6.703125-14.96875-14.96875v-245.386719l-7.382812 7.378906c-5.84375 5.84375-15.324219 5.84375-21.167969 0l-60.882813-60.882812c-5.84375-5.84375-5.84375-15.320312 0-21.164062l91.878907-102.144532c1.898437-2.109375 5.21875-4.367187 7.894531-5.238281l63.25-24.078125c9.792969-10.757812 19.460938-21.667969 29.175781-32.5 2.730469-3.660156 7.09375-6.03125 12.011719-6.03125l94.816406.003906c4.234375-.003906 8.304688 1.8125 11.132813 4.960938zm70.828125 76.269532v87.046874l17.964844 17.964844 40.273437-40.269531zm-111.179688-75.171876-25.386718 47.800782 27.496093 6.117187 9.808594-41.609375zm-37.511718 75.203126-.054688 35.324218h10.015625c8.269531 0 14.972656 6.703125 14.972656 14.972656 0 8.265626-6.703125 14.96875-14.972656 14.96875l-24.949219-.058593c-8.238281 0-14.914062-6.675781-14.914062-14.910157l.078125-49.210937c-14.339844 3.773437-30.101563 6.707031-44.695313 9.953125-8.042968 1.777344-16.003906-3.300781-17.78125-11.34375l-9.414062-44.605469-44.019532 16.757813v387.921875h264.484376v-388.027344l-42.820313-16.714844-10.613281 44.832031c-1.847656 7.945313-9.753906 12.945313-17.738282 11.179688-9.890624-2.199219-40.390624-7.445312-47.578124-11.039062zm-64.425782-74.070313-10.453125 11.65625 8.644531 41.054687 25.367188-5.640624zm49.890625 33.066406 23.554688-44.359375h-45.757813zm-161.140625 128.019531v-87.050781l-58.238281 64.742188 40.273437 40.273437zm0 0" fill-rule="evenodd"/></svg>